<?xml version="1.0" encoding="utf-8"?>
<!-- Generator: Adobe Illustrator 27.8.0, SVG Export Plug-In . SVG Version: 6.00 Build 0)  -->
<svg version="1.1" id="Ebene_1" xmlns="http://www.w3.org/2000/svg" xmlns:xlink="http://www.w3.org/1999/xlink" x="0px" y="0px"
	 viewBox="0 0 60 60" style="enable-background:new 0 0 60 60;" xml:space="preserve">
<path id="Vector_2" d="M45.22,24c-0.4,0-0.79-0.13-1.11-0.37L30,13.1L15.89,23.63c-0.4,0.3-0.9,0.43-1.39,0.35
	c-0.49-0.07-0.93-0.34-1.23-0.75c-0.3-0.4-0.42-0.91-0.35-1.41c0.07-0.5,0.34-0.95,0.74-1.24L28.88,9.2
	C29.21,8.96,29.6,8.83,30,8.83c0.4,0,0.79,0.13,1.11,0.37l15.22,11.37c0.32,0.24,0.55,0.57,0.67,0.95c0.12,0.38,0.12,0.79-0.01,1.17
	c-0.12,0.38-0.36,0.71-0.68,0.94C46,23.87,45.61,24,45.22,24z"/>
<path id="Vector_2_00000144312676727162566670000018043185630000853382_" d="M46.32,36.36c0.32,0.23,0.56,0.56,0.68,0.94
	c0.12,0.38,0.13,0.79,0.01,1.17c-0.12,0.38-0.36,0.71-0.67,0.95L31.11,50.8c-0.32,0.24-0.71,0.37-1.11,0.37
	c-0.4,0-0.79-0.13-1.11-0.37L13.66,39.42c-0.4-0.3-0.67-0.75-0.74-1.24c-0.07-0.5,0.05-1,0.35-1.41c0.3-0.4,0.74-0.67,1.23-0.75
	c0.49-0.07,0.99,0.05,1.39,0.35L30,46.9L44.1,36.37c0.32-0.24,0.71-0.37,1.11-0.37C45.61,36,46,36.13,46.32,36.36z"/>
<circle cx="30" cy="30" r="5.25"/>
</svg>
